<?xml version="1.0" encoding="UTF-8"?>
<svg id="Layer_2" data-name="Layer 2" xmlns="http://www.w3.org/2000/svg" viewBox="0 0 710.15 95.03">
  <g id="Layer_1-2" data-name="Layer 1">
    <g>
      <path d="M98.46,8.78c0-4.25-3.8-7.72-8.45-7.72H24.43c-4.65,0-8.45,3.48-8.45,7.72s-3.59,7.72-7.99,7.72S0,20.3,0,24.95v61.63c0,4.65,3.59,8.45,7.99,8.45s7.99-3.8,7.99-8.45V25.48c0-4.65,3.8-8.45,8.45-8.45h14.99c4.65,0,8.45,3.8,8.45,8.45v61.1c0,4.65,3.59,8.45,7.99,8.45s7.99-3.8,7.99-8.45V25.48c0-4.65,3.8-8.45,8.45-8.45h17.72c4.65,0,8.45,3.8,8.45,8.45v61.1c0,4.65,3.59,8.45,7.99,8.45s7.99-3.8,7.99-8.45V24.95c0-4.65-3.59-8.45-7.99-8.45s-7.99-3.48-7.99-7.72ZM203.61,9.34c0-4.65-3.59-8.45-7.99-8.45s-7.99,3.8-7.99,8.45v61.26c0,4.65,3.45,8.45,7.67,8.45s7.67,3.59,7.67,7.99,3.8,7.99,8.45,7.99h42.63c4.65,0,8.45-3.59,8.45-7.99s-3.8-7.99-8.45-7.99h-41.99c-4.65,0-8.45-3.8-8.45-8.45V9.34ZM147.27,10.52c0-4.25-3.59-7.72-7.99-7.72s-7.99,3.59-7.99,7.99,3.59,7.99,7.99,7.99,7.99,3.8,7.99,8.45v58.54c0,4.65,3.59,8.45,7.99,8.45s7.99-3.8,7.99-8.45V26.7c0-4.65-3.59-8.45-7.99-8.45s-7.99-3.48-7.99-7.72ZM702.98,13.56c-3.94,0-7.17-3.05-7.17-6.78S692.01,0,687.36,0h-31.64c-4.65,0-8.45,3.09-8.45,6.86s-3.22,6.86-7.17,6.86-7.17,3.8-7.17,8.45v51.09c0,4.65,3.22,8.45,7.17,8.45s7.17,2.99,7.17,6.66,3.8,6.66,8.45,6.66h31.64c4.65,0,8.45-3.03,8.45-6.74s3.22-6.74,7.17-6.74,7.17-3.8,7.17-8.45V22.02c0-4.65-3.22-8.45-7.17-8.45ZM695.82,72.25c0,4.65-3.8,8.45-8.45,8.45h-31.64c-4.65,0-8.45-3.8-8.45-8.45V22.78c0-4.65,3.8-8.45,8.45-8.45h31.64c4.65,0,8.45,3.8,8.45,8.45v49.47ZM594.36,7.27c0-3.55-3.8-6.45-8.45-6.45h-40.24c-4.65,0-8.45,2.9-8.45,6.45s-3.22,6.45-7.17,6.45-7.17,3.8-7.17,8.45v63.6c0,4.65,3.22,8.45,7.17,8.45s7.17-3.8,7.17-8.45v-23.66c0-4.65,3.8-8.45,8.45-8.45h40.24c4.65,0,8.45,3.8,8.45,8.45v23.66c0,4.65,3.22,8.45,7.17,8.45s7.17-3.8,7.17-8.45v-26.63c0-4.65-3.22-8.45-7.17-8.45s-7.17-2.03-7.17-4.5,3.22-4.5,7.17-4.5,7.17-3.8,7.17-8.45v-11.06c0-4.65-3.22-8.45-7.17-8.45s-7.17-2.9-7.17-6.45ZM594.36,30.88c0,4.65-3.8,8.45-8.45,8.45h-40.24c-4.65,0-8.45-3.8-8.45-8.45v-7.28c0-4.65,3.8-8.45,8.45-8.45h40.24c4.65,0,8.45,3.8,8.45,8.45v7.28ZM279.02,8.4c0,4.17-2.97,7.58-6.59,7.58s-6.59,3.8-6.59,8.45v47c0,4.65,2.97,8.45,6.59,8.45s6.59,3.22,6.59,7.17,3.8,7.17,8.45,7.17h36.51c4.65,0,8.45-3.59,8.45-7.99s-3.8-7.99-8.45-7.99h-35.36c-4.65,0-8.45-3.8-8.45-8.45v-5.42c0-4.65,3.8-8.45,8.45-8.45h35.36c4.65,0,8.45-3.59,8.45-7.99s-3.8-7.99-8.45-7.99h-35.36c-4.65,0-8.45-3.8-8.45-8.45v-6.24c0-4.65,3.8-8.45,8.45-8.45h35.36c4.65,0,8.45-3.59,8.45-7.99s-3.8-7.99-8.45-7.99h-36.51c-4.65,0-8.45,3.41-8.45,7.58ZM451.31,8.81c0,4.39-2.97,7.99-6.59,7.99s-6.59,3.8-6.59,8.45v47c0,4.65,2.97,8.45,6.59,8.45s6.59,3.22,6.59,7.17,3.8,7.17,8.45,7.17h36.51c4.65,0,8.45-3.59,8.45-7.99s-3.8-7.99-8.45-7.99h-35.36c-4.65,0-8.45-3.8-8.45-8.45v-5.42c0-4.65,3.8-8.45,8.45-8.45h35.36c4.65,0,8.45-3.59,8.45-7.99s-3.8-7.99-8.45-7.99h-35.36c-4.65,0-8.45-3.8-8.45-8.45v-7.06c0-4.65,3.8-8.45,8.45-8.45h35.36c4.65,0,8.45-3.59,8.45-7.99s-3.8-7.99-8.45-7.99h-36.51c-4.65,0-8.45,3.59-8.45,7.99ZM359.25,8.81c0,4.39,3.8,7.99,8.45,7.99h24.37c4.65,0,8.45,3.09,8.45,6.87s-2.76,6.87-6.13,6.87-6.13,3.28-6.13,7.28-3.33,7.28-7.41,7.28-7.41,3.59-7.41,7.99-3.19,7.99-7.09,7.99-7.09,3.59-7.09,7.99v15.97c0,4.39,3.8,7.99,8.45,7.99h40.34c4.65,0,8.45-3.59,8.45-7.99s-3.8-7.99-8.45-7.99h-24.37c-4.65,0-8.45-3.59-8.45-7.99s3.19-7.99,7.09-7.99,7.09-3.28,7.09-7.28,3.33-7.28,7.41-7.28,7.41-3.33,7.41-7.41,2.76-7.41,6.13-7.41,6.13-3.35,6.13-7.44v-15.97c0-4.09-3.8-7.44-8.45-7.44h-40.34c-4.65,0-8.45,3.59-8.45,7.99Z"/>
      <path d="M98.46,8.78c0-4.25-3.8-7.72-8.45-7.72H24.43c-4.65,0-8.45,3.48-8.45,7.72s-3.59,7.72-7.99,7.72S0,20.3,0,24.95v61.63c0,4.65,3.59,8.45,7.99,8.45s7.99-3.8,7.99-8.45V25.48c0-4.65,3.8-8.45,8.45-8.45h14.99c4.65,0,8.45,3.8,8.45,8.45v61.1c0,4.65,3.59,8.45,7.99,8.45s7.99-3.8,7.99-8.45V25.48c0-4.65,3.8-8.45,8.45-8.45h17.72c4.65,0,8.45,3.8,8.45,8.45v61.1c0,4.65,3.59,8.45,7.99,8.45s7.99-3.8,7.99-8.45V24.95c0-4.65-3.59-8.45-7.99-8.45s-7.99-3.48-7.99-7.72ZM203.61,9.34c0-4.65-3.59-8.45-7.99-8.45s-7.99,3.8-7.99,8.45v61.26c0,4.65,3.45,8.45,7.67,8.45s7.67,3.59,7.67,7.99,3.8,7.99,8.45,7.99h42.63c4.65,0,8.45-3.59,8.45-7.99s-3.8-7.99-8.45-7.99h-41.99c-4.65,0-8.45-3.8-8.45-8.45V9.34ZM147.27,10.52c0-4.25-3.59-7.72-7.99-7.72s-7.99,3.59-7.99,7.99,3.59,7.99,7.99,7.99,7.99,3.8,7.99,8.45v58.54c0,4.65,3.59,8.45,7.99,8.45s7.99-3.8,7.99-8.45V26.7c0-4.65-3.59-8.45-7.99-8.45s-7.99-3.48-7.99-7.72ZM702.98,13.56c-3.94,0-7.17-3.05-7.17-6.78S692.01,0,687.36,0h-31.64c-4.65,0-8.45,3.09-8.45,6.86s-3.22,6.86-7.17,6.86-7.17,3.8-7.17,8.45v51.09c0,4.65,3.22,8.45,7.17,8.45s7.17,2.99,7.17,6.66,3.8,6.66,8.45,6.66h31.64c4.65,0,8.45-3.03,8.45-6.74s3.22-6.74,7.17-6.74,7.17-3.8,7.17-8.45V22.02c0-4.65-3.22-8.45-7.17-8.45ZM695.82,72.25c0,4.65-3.8,8.45-8.45,8.45h-31.64c-4.65,0-8.45-3.8-8.45-8.45V22.78c0-4.65,3.8-8.45,8.45-8.45h31.64c4.65,0,8.45,3.8,8.45,8.45v49.47ZM594.36,7.27c0-3.55-3.8-6.45-8.45-6.45h-40.24c-4.65,0-8.45,2.9-8.45,6.45s-3.22,6.45-7.17,6.45-7.17,3.8-7.17,8.45v63.6c0,4.65,3.22,8.45,7.17,8.45s7.17-3.8,7.17-8.45v-23.66c0-4.65,3.8-8.45,8.45-8.45h40.24c4.65,0,8.45,3.8,8.45,8.45v23.66c0,4.65,3.22,8.45,7.17,8.45s7.17-3.8,7.17-8.45v-26.63c0-4.65-3.22-8.45-7.17-8.45s-7.17-2.03-7.17-4.5,3.22-4.5,7.17-4.5,7.17-3.8,7.17-8.45v-11.06c0-4.65-3.22-8.45-7.17-8.45s-7.17-2.9-7.17-6.45ZM594.36,30.88c0,4.65-3.8,8.45-8.45,8.45h-40.24c-4.65,0-8.45-3.8-8.45-8.45v-7.28c0-4.65,3.8-8.45,8.45-8.45h40.24c4.65,0,8.45,3.8,8.45,8.45v7.28ZM279.02,8.4c0,4.17-2.97,7.58-6.59,7.58s-6.59,3.8-6.59,8.45v47c0,4.65,2.97,8.45,6.59,8.45s6.59,3.22,6.59,7.17,3.8,7.17,8.45,7.17h36.51c4.65,0,8.45-3.59,8.45-7.99s-3.8-7.99-8.45-7.99h-35.36c-4.65,0-8.45-3.8-8.45-8.45v-5.42c0-4.65,3.8-8.45,8.45-8.45h35.36c4.65,0,8.45-3.59,8.45-7.99s-3.8-7.99-8.45-7.99h-35.36c-4.65,0-8.45-3.8-8.45-8.45v-6.24c0-4.65,3.8-8.45,8.45-8.45h35.36c4.65,0,8.45-3.59,8.45-7.99s-3.8-7.99-8.45-7.99h-36.51c-4.65,0-8.45,3.41-8.45,7.58ZM451.31,8.81c0,4.39-2.97,7.99-6.59,7.99s-6.59,3.8-6.59,8.45v47c0,4.65,2.97,8.45,6.59,8.45s6.59,3.22,6.59,7.17,3.8,7.17,8.45,7.17h36.51c4.65,0,8.45-3.59,8.45-7.99s-3.8-7.99-8.45-7.99h-35.36c-4.65,0-8.45-3.8-8.45-8.45v-5.42c0-4.65,3.8-8.45,8.45-8.45h35.36c4.65,0,8.45-3.59,8.45-7.99s-3.8-7.99-8.45-7.99h-35.36c-4.65,0-8.45-3.8-8.45-8.45v-7.06c0-4.65,3.8-8.45,8.45-8.45h35.36c4.65,0,8.45-3.59,8.45-7.99s-3.8-7.99-8.45-7.99h-36.51c-4.65,0-8.45,3.59-8.45,7.99ZM359.25,8.81c0,4.39,3.8,7.99,8.45,7.99h24.37c4.65,0,8.45,3.09,8.45,6.87s-2.76,6.87-6.13,6.87-6.13,3.28-6.13,7.28-3.33,7.28-7.41,7.28-7.41,3.59-7.41,7.99-3.19,7.99-7.09,7.99-7.09,3.59-7.09,7.99v15.97c0,4.39,3.8,7.99,8.45,7.99h40.34c4.65,0,8.45-3.59,8.45-7.99s-3.8-7.99-8.45-7.99h-24.37c-4.65,0-8.45-3.59-8.45-7.99s3.19-7.99,7.09-7.99,7.09-3.28,7.09-7.28,3.33-7.28,7.41-7.28,7.41-3.33,7.41-7.41,2.76-7.41,6.13-7.41,6.13-3.35,6.13-7.44v-15.97c0-4.09-3.8-7.44-8.45-7.44h-40.34c-4.65,0-8.45,3.59-8.45,7.99Z"/>
    </g>
  </g>
</svg>